<svg enable-background="new 0 0 36 36" height="512" viewBox="0 0 36 36" width="512" xmlns="http://www.w3.org/2000/svg"><g id="BG"><g><path d="m8.377 31.833c6.917 0 11.667 3.583 15 3.583s10.333-1.916 10.333-17.249-9.417-17.584-13.083-17.584c-17.167 0-24.5 31.25-12.25 31.25z" fill="#efefef"/></g></g><g id="effect"><g><g><path d="m4.84 22.6h2v1h-2z" fill="#a4afc1"/></g><g><path d="m8.09 25.1h1v2h-1z" fill="#a4afc1"/></g><g><path d="m8.09 19.35h1v2h-1z" fill="#a4afc1"/></g></g><g><path d="m27.469 17.647c-.827 0-1.5-.673-1.5-1.5s.673-1.5 1.5-1.5 1.5.673 1.5 1.5-.673 1.5-1.5 1.5zm0-2c-.276 0-.5.224-.5.5s.224.5.5.5.5-.224.5-.5-.224-.5-.5-.5z" fill="#a4afc1"/></g></g><g id="color"><g><path d="m17.25 26.25c-1.269 0-2.795-.067-3.991-.72h-.009v2.72c0 .55.45 1 1 1h6c.55 0 1-.45 1-1v-2.726c-1.197.658-2.727.726-4 .726z" fill="#2fdf84"/></g><g><path d="m21.75 6.75c-.828 0-1.5.672-1.5 1.5v4.25 1.75c0-.83-.67-1.5-1.5-1.5s-1.5.67-1.5 1.5c0-.828-.672-1.5-1.5-1.5s-1.5.672-1.5 1.5v1c0-.828-.672-1.5-1.5-1.5s-1.5.672-1.5 1.5v.75.25 5.25c0 4.5 3.5 4.75 6 4.75s6-.25 6-4.75v-3-2.78-7.47c0-.828-.672-1.5-1.5-1.5z" fill="#f3f3f1"/></g></g><g id="shadow"><g><g><path d="m15.5 28.25v-2.09c-.782-.088-1.564-.26-2.241-.63h-.009v2.72c0 .55.45 1 1 1h2.25c-.55 0-1-.45-1-1z" fill="#00b871"/></g><g><path d="m19.5 26.25c.551 0 1.151-.023 1.75-.091v-.635c-.86.472-1.891.635-2.875.693.386.022.766.033 1.125.033z" fill="#00b871"/></g></g><g><g><path d="m19.5 14.25c0-.379.144-.72.375-.984-.275-.314-.674-.516-1.125-.516-.13 0-.255.022-.375.053.646.167 1.125.749 1.125 1.447z" fill="#d5dbe1"/></g><g><path d="m21 12.75c.83 0 1.5.67 1.5 1.5v-1.75-4.25c0-.378.144-.719.375-.983-.275-.314-.674-.517-1.125-.517-.828 0-1.5.672-1.5 1.5v4.25.457c.221-.128.475-.207.75-.207z" fill="#d5dbe1"/></g><g><path d="m13.5 21.5v-5.25-.25-.75c0-.378.144-.719.375-.983-.275-.315-.674-.517-1.125-.517-.828 0-1.5.672-1.5 1.5v.75.25 5.25c0 4.5 3.5 4.75 6 4.75.359 0 .739-.007 1.125-.029-2.308-.132-4.875-.866-4.875-4.721z" fill="#d5dbe1"/></g><g><path d="m15 13.75c.828 0 1.5.672 1.5 1.5v-1c0-.378.144-.719.375-.983-.275-.315-.674-.517-1.125-.517-.722 0-1.324.511-1.467 1.19.214-.117.456-.19.717-.19z" fill="#d5dbe1"/></g></g></g><g id="_x31_.5"><g><g><path d="m20.25 30h-6c-.965 0-1.75-.785-1.75-1.75v-2.72h1.5v2.72c0 .136.114.25.25.25h6c.136 0 .25-.114.25-.25v-2.76h1.5v2.76c0 .965-.785 1.75-1.75 1.75z"/></g></g><g><g><path d="m12.75 18.5c-1.241 0-2.25-1.009-2.25-2.25v-1c0-1.241 1.009-2.25 2.25-2.25s2.25 1.009 2.25 2.25v1c0 1.241-1.009 2.25-2.25 2.25zm0-4c-.414 0-.75.336-.75.75v1c0 .414.336.75.75.75s.75-.336.75-.75v-1c0-.414-.336-.75-.75-.75z"/></g></g><g><g><path d="m15.75 19.5c-1.241 0-2.25-1.009-2.25-2.25v-3c0-1.241 1.009-2.25 2.25-2.25s2.25 1.009 2.25 2.25v3c0 1.241-1.009 2.25-2.25 2.25zm0-6c-.414 0-.75.336-.75.75v3c0 .414.336.75.75.75s.75-.336.75-.75v-3c0-.414-.336-.75-.75-.75z"/></g></g><g><g><path d="m17.31 19.5h-.06c-.414 0-.75-.336-.75-.75v-4.5c0-1.241 1.009-2.25 2.25-2.25s2.25 1.009 2.25 2.25v2.55h-1.5v-2.55c0-.414-.336-.75-.75-.75s-.75.336-.75.75v4.5h-.72z"/></g></g><g><g><path d="m17.25 27c-2.02 0-6.75 0-6.75-5.5v-5.5h1.5v5.5c0 3.331 2.009 4 5.25 4s5.25-.669 5.25-4v-13.25c0-.414-.336-.75-.75-.75s-.75.336-.75.75v8.55h-1.5v-8.55c0-1.241 1.009-2.25 2.25-2.25s2.25 1.009 2.25 2.25v13.25c0 5.5-4.73 5.5-6.75 5.5z"/></g></g><g><g><path d="m19.218 22.359-1.86-1.87c-.547-.533-.84-1.276-.797-2.032-.001-.674.286-1.348.806-1.854.82-.841 2.254-1.041 3.262-.45.172.078.392.237.611.457l2.539 2.529-1.059 1.062-2.54-2.53c-.096-.096-.178-.159-.25-.193-.58-.331-1.13-.196-1.503.186-.242.236-.367.528-.367.836-.02.369.106.682.354.923l1.868 1.878z"/></g></g></g></svg>